<svg height="622" width="720" xmlns="http://www.w3.org/2000/svg">
<rect height="622" fill="#555" width="720"></rect>
<text fill="#7f7" font-family="Courier New" font-size="12" xml:space="preserve">
<tspan x="10" y="26">4 megabytes installed</tspan>
<tspan x="10" y="42"></tspan>
<tspan x="10" y="58">node_modules</tspan>
<tspan x="10" y="74">└─┬ prettier@1.2.2 </tspan>
<tspan x="10" y="90">  ├── ast-types@0.9.8 </tspan>
<tspan x="10" y="106">  ├─┬ babel-code-frame@6.22.0 </tspan>
<tspan x="10" y="122">  │ └── js-tokens@3.0.1 </tspan>
<tspan x="10" y="138">  ├── babylon@7.0.0-beta.8 </tspan>
<tspan x="10" y="154">  ├─┬ chalk@1.1.3 </tspan>
<tspan x="10" y="170">  │ ├── ansi-styles@2.2.1 </tspan>
<tspan x="10" y="186">  │ ├── escape-string-regexp@1.0.5 </tspan>
<tspan x="10" y="202">  │ ├─┬ has-ansi@2.0.0 </tspan>
<tspan x="10" y="218">  │ │ └── ansi-regex@2.1.1 </tspan>
<tspan x="10" y="234">  │ ├── strip-ansi@3.0.1 </tspan>
<tspan x="10" y="250">  │ └── supports-color@2.0.0 </tspan>
<tspan x="10" y="266">  ├── esutils@2.0.2 </tspan>
<tspan x="10" y="282">  ├── flow-parser@0.43.0 </tspan>
<tspan x="10" y="298">  ├── get-stdin@5.0.1 </tspan>
<tspan x="10" y="314">  ├─┬ glob@7.1.1 </tspan>
<tspan x="10" y="330">  │ ├── fs.realpath@1.0.0 </tspan>
<tspan x="10" y="346">  │ ├─┬ inflight@1.0.6 </tspan>
<tspan x="10" y="362">  │ │ └── wrappy@1.0.2 </tspan>
<tspan x="10" y="378">  │ ├── inherits@2.0.3 </tspan>
<tspan x="10" y="394">  │ ├─┬ minimatch@3.0.3 </tspan>
<tspan x="10" y="410">  │ │ └─┬ brace-expansion@1.1.7 </tspan>
<tspan x="10" y="426">  │ │   ├── balanced-match@0.4.2 </tspan>
<tspan x="10" y="442">  │ │   └── concat-map@0.0.1 </tspan>
<tspan x="10" y="458">  │ ├── once@1.4.0 </tspan>
<tspan x="10" y="474">  │ └── path-is-absolute@1.0.1 </tspan>
<tspan x="10" y="490">  ├─┬ jest-validate@19.0.0 </tspan>
<tspan x="10" y="506">  │ ├── jest-matcher-utils@19.0.0 </tspan>
<tspan x="10" y="522">  │ ├── leven@2.1.0 </tspan>
<tspan x="10" y="538">  │ └─┬ pretty-format@19.0.0 </tspan>
<tspan x="10" y="554">  │   └─┬ ansi-styles@3.0.0 </tspan>
<tspan x="10" y="570">  │     └─┬ color-convert@1.9.0 </tspan>
<tspan x="10" y="586">  │       └── color-name@1.1.2 </tspan>
<tspan x="10" y="602">  └── minimist@1.2.0</tspan>
</text>
</svg>
